<?xml version="1.0" standalone="no"?><!DOCTYPE svg PUBLIC "-//W3C//DTD SVG 1.1//EN" "http://www.w3.org/Graphics/SVG/1.1/DTD/svg11.dtd"><svg t="1702717091494" class="icon" viewBox="0 0 1024 1024" version="1.1" xmlns="http://www.w3.org/2000/svg" p-id="1300" xmlns:xlink="http://www.w3.org/1999/xlink" width="16" height="16"><path d="M97.718857 109.714286a109.714286 109.714286 0 0 1 107.349333 87.064381L220.16 268.190476h0.24381l49.005714 234.666667L306.541714 682.666667h459.678476l70.460953-341.333334H285.500952l-15.286857-73.142857h566.491429a73.142857 73.142857 0 0 1 71.631238 87.942095l-70.460952 341.333334A73.142857 73.142857 0 0 1 766.22019 755.809524H306.541714a73.142857 73.142857 0 0 1-71.631238-58.343619l-69.241905-335.335619-0.463238 0.097524-31.695238-150.357334A36.571429 36.571429 0 0 0 97.718857 182.857143H35.157333v-73.142857zM572.952381 390.095238v85.333333H658.285714v73.142858h-85.333333V633.904762h-73.142857v-85.333333H414.47619v-73.142858h85.333334V390.095238h73.142857z m-268.190476 536.380952a60.952381 60.952381 0 1 0 0-121.904761 60.952381 60.952381 0 0 0 0 121.904761z m438.857143 0a60.952381 60.952381 0 1 0 0-121.904761 60.952381 60.952381 0 0 0 0 121.904761z" p-id="1301"></path></svg>