<?xml version="1.0" standalone="no"?><!DOCTYPE svg PUBLIC "-//W3C//DTD SVG 1.1//EN" "http://www.w3.org/Graphics/SVG/1.1/DTD/svg11.dtd"><svg t="1702717111710" class="icon" viewBox="0 0 1024 1024" version="1.1" xmlns="http://www.w3.org/2000/svg" p-id="1846" xmlns:xlink="http://www.w3.org/1999/xlink" width="16" height="16"><path d="M706.852571 726.820571c28.818286 0 53.052952 19.797333 60.074667 46.640762l0.804572 3.486477 0.390095 2.096761c0.560762 3.413333 0.853333 6.875429 0.853333 10.435048a62.415238 62.415238 0 0 1-58.026667 62.512762l-4.096 0.121905a62.390857 62.390857 0 0 1-62.122666-62.659048 62.268952 62.268952 0 0 1 62.122666-62.659048z m-397.628952 0a62.390857 62.390857 0 0 1 62.122667 62.659048 62.415238 62.415238 0 0 1-58.026667 62.512762l-4.096 0.121905a62.390857 62.390857 0 0 1-62.122667-62.659048c0-34.596571 27.794286-62.634667 62.122667-62.634667zM975.238095 483.08419v61.488762h-82.017524v159.402667c0 40.301714-32.377905 72.97219-72.362666 72.972191h-4.33981c-6.168381-55.588571-52.906667-98.767238-109.665524-98.767239-56.758857 0-103.497143 43.178667-109.689904 98.742858h-178.249143c-6.192762-55.56419-52.931048-98.742857-109.689905-98.742858-56.734476 0-103.497143 43.178667-109.665524 98.742858H145.505524c-39.984762 0-72.362667-32.670476-72.362667-72.94781v-202.24c0-30.403048 18.70019-57.636571 46.957714-68.315429l176.688762-66.803809v-118.101333c0-40.301714 32.426667-72.97219 72.362667-72.972191h451.705905c39.984762 0 72.362667 32.670476 72.362666 72.972191v234.544762H749.714286v61.513142h143.506285v-61.488762H975.238095zM298.569143 443.977143L145.505524 501.76v38.278095h153.063619v-96.01219z m533.991619-73.874286H658.285714v61.488762h174.275048V370.102857z" p-id="1847"></path></svg>